<mxfile host="app.diagrams.net" agent="Mozilla/5.0 (Windows NT 10.0; Win64; x64) AppleWebKit/537.36 (KHTML, like Gecko) Chrome/134.0.0.0 Safari/537.36 Edg/134.0.0.0" version="26.1.1">
  <diagram name="第 1 页" id="Xfgz9Orkt3l9N9rIgqLr">
    <mxGraphModel dx="1427" dy="959" grid="1" gridSize="10" guides="1" tooltips="1" connect="1" arrows="1" fold="1" page="1" pageScale="1" pageWidth="827" pageHeight="1169" math="0" shadow="0">
      <root>
        <mxCell id="0" />
        <mxCell id="1" parent="0" />
        <mxCell id="_9PVzrd9Amoy8zWmT1fk-1" value="&lt;div style=&quot;&quot;&gt;&lt;div style=&quot;text-align: left;&quot;&gt;&lt;b style=&quot;background-color: transparent; color: light-dark(rgb(51, 51, 51), rgb(193, 193, 193));&quot;&gt;&lt;font style=&quot;font-size: 14px;&quot; face=&quot;Times New Roman&quot;&gt;输入 :&lt;/font&gt;&lt;/b&gt;&lt;/div&gt;&lt;div style=&quot;text-align: left;&quot;&gt;&lt;b style=&quot;background-color: transparent; color: light-dark(rgb(51, 51, 51), rgb(193, 193, 193));&quot;&gt;&lt;font style=&quot;font-size: 14px;&quot; face=&quot;Times New Roman&quot;&gt;&lt;br&gt;&lt;/font&gt;&lt;/b&gt;&lt;/div&gt;&lt;div style=&quot;&quot;&gt;&lt;div style=&quot;text-align: center;&quot;&gt;&lt;font style=&quot;font-size: 14px;&quot; face=&quot;Times New Roman&quot;&gt;[User intention] :User want to watch movie and have fun.&lt;/font&gt;&lt;/div&gt;&lt;div style=&quot;text-align: center;&quot;&gt;&lt;font style=&quot;font-size: 14px;&quot; face=&quot;Times New Roman&quot;&gt;&lt;br&gt;&lt;/font&gt;&lt;/div&gt;&lt;/div&gt;&lt;div style=&quot;text-align: left;&quot;&gt;&lt;font face=&quot;Times New Roman&quot; style=&quot;font-size: 14px;&quot;&gt;[Predicted Target]: TV&lt;/font&gt;&lt;/div&gt;&lt;div style=&quot;text-align: left;&quot;&gt;&lt;font face=&quot;Times New Roman&quot; style=&quot;font-size: 14px;&quot;&gt;&lt;br&gt;&lt;/font&gt;&lt;/div&gt;&lt;div style=&quot;text-align: left;&quot;&gt;&lt;font face=&quot;Times New Roman&quot; style=&quot;font-size: 14px;&quot;&gt;[Object List] ：&lt;span style=&quot;background-color: transparent; color: light-dark(rgb(51, 51, 51), rgb(193, 193, 193)); text-align: center;&quot;&gt;desk, chair, l&lt;/span&gt;&lt;/font&gt;&lt;span style=&quot;font-family: &amp;quot;Times New Roman&amp;quot;; font-size: 14px; background-color: transparent; color: light-dark(rgb(51, 51, 51), rgb(193, 193, 193)); text-align: center;&quot;&gt;aptop&lt;/span&gt;&lt;span style=&quot;background-color: transparent; color: light-dark(rgb(51, 51, 51), rgb(193, 193, 193)); text-align: center; font-size: 14px; font-family: &amp;quot;Times New Roman&amp;quot;;&quot;&gt;&amp;nbsp;……&lt;/span&gt;&lt;/div&gt;&lt;div style=&quot;text-align: left;&quot;&gt;&lt;br&gt;&lt;/div&gt;&lt;div style=&quot;text-align: left;&quot;&gt;&lt;b style=&quot;background-color: transparent; color: light-dark(rgb(51, 51, 51), rgb(193, 193, 193));&quot;&gt;&lt;font style=&quot;font-size: 14px;&quot; face=&quot;Times New Roman&quot;&gt;&lt;br&gt;&lt;/font&gt;&lt;/b&gt;&lt;/div&gt;&lt;div style=&quot;text-align: left;&quot;&gt;&lt;b style=&quot;background-color: transparent; color: light-dark(rgb(51, 51, 51), rgb(193, 193, 193));&quot;&gt;&lt;font style=&quot;font-size: 14px;&quot; face=&quot;Times New Roman&quot;&gt;输出 :&lt;/font&gt;&lt;/b&gt;&lt;/div&gt;&lt;div style=&quot;text-align: left;&quot;&gt;&lt;font style=&quot;font-size: 14px;&quot;&gt;&lt;font style=&quot;&quot; face=&quot;Times New Roman&quot;&gt;[&lt;/font&gt;&lt;font style=&quot;&quot; face=&quot;Times New Roman&quot;&gt;&lt;font style=&quot;&quot;&gt;Task]&lt;/font&gt;&lt;span style=&quot;background-color: transparent; color: light-dark(rgb(51, 51, 51), rgb(193, 193, 193)); text-align: center;&quot;&gt;Use the laptop to watch a movie.&lt;/span&gt;&lt;/font&gt;&lt;/font&gt;&lt;/div&gt;&lt;/div&gt;" style="rounded=1;arcSize=6;whiteSpace=wrap;html=1;fillColor=#f5f5f5;fontColor=#333333;strokeColor=#666666;" vertex="1" parent="1">
          <mxGeometry x="130" y="200" width="380" height="220" as="geometry" />
        </mxCell>
        <mxCell id="_9PVzrd9Amoy8zWmT1fk-2" value="" style="endArrow=none;html=1;rounded=0;exitX=0.001;exitY=0.727;exitDx=0;exitDy=0;exitPerimeter=0;entryX=1;entryY=0.729;entryDx=0;entryDy=0;entryPerimeter=0;fillColor=#f5f5f5;strokeColor=#666666;" edge="1" parent="1" source="_9PVzrd9Amoy8zWmT1fk-1" target="_9PVzrd9Amoy8zWmT1fk-1">
          <mxGeometry width="50" height="50" relative="1" as="geometry">
            <mxPoint x="129" y="360" as="sourcePoint" />
            <mxPoint x="440" y="400" as="targetPoint" />
          </mxGeometry>
        </mxCell>
        <mxCell id="_9PVzrd9Amoy8zWmT1fk-3" value="&lt;div style=&quot;&quot;&gt;&lt;div style=&quot;text-align: left;&quot;&gt;&lt;b style=&quot;background-color: transparent; color: light-dark(rgb(51, 51, 51), rgb(193, 193, 193));&quot;&gt;&lt;font style=&quot;font-size: 14px;&quot; face=&quot;Times New Roman&quot;&gt;输入 :&lt;/font&gt;&lt;/b&gt;&lt;/div&gt;&lt;div style=&quot;text-align: left;&quot;&gt;&lt;b style=&quot;background-color: transparent; color: light-dark(rgb(51, 51, 51), rgb(193, 193, 193));&quot;&gt;&lt;font style=&quot;font-size: 14px;&quot; face=&quot;Times New Roman&quot;&gt;&lt;br&gt;&lt;/font&gt;&lt;/b&gt;&lt;/div&gt;&lt;div style=&quot;&quot;&gt;&lt;div style=&quot;text-align: center;&quot;&gt;&lt;font style=&quot;font-size: 14px;&quot; face=&quot;Times New Roman&quot;&gt;[User intention] :User may intent to drink coffee or rest.&lt;/font&gt;&lt;/div&gt;&lt;div style=&quot;text-align: center;&quot;&gt;&lt;font style=&quot;font-size: 14px;&quot; face=&quot;Times New Roman&quot;&gt;&lt;br&gt;&lt;/font&gt;&lt;/div&gt;&lt;/div&gt;&lt;div style=&quot;text-align: left;&quot;&gt;&lt;font face=&quot;Times New Roman&quot; style=&quot;font-size: 14px;&quot;&gt;[Predicted Target]: sofa&lt;/font&gt;&lt;/div&gt;&lt;div style=&quot;text-align: left;&quot;&gt;&lt;font face=&quot;Times New Roman&quot; style=&quot;font-size: 14px;&quot;&gt;&lt;br&gt;&lt;/font&gt;&lt;/div&gt;&lt;div style=&quot;text-align: left;&quot;&gt;&lt;font face=&quot;Times New Roman&quot; style=&quot;font-size: 14px;&quot;&gt;[Object List] ：&lt;span style=&quot;background-color: transparent; color: light-dark(rgb(51, 51, 51), rgb(193, 193, 193)); text-align: center;&quot;&gt;chair, bed, pillows ……&lt;/span&gt;&lt;/font&gt;&lt;/div&gt;&lt;div style=&quot;text-align: left;&quot;&gt;&lt;br&gt;&lt;/div&gt;&lt;div style=&quot;text-align: left;&quot;&gt;&lt;b style=&quot;background-color: transparent; color: light-dark(rgb(51, 51, 51), rgb(193, 193, 193));&quot;&gt;&lt;font style=&quot;font-size: 14px;&quot; face=&quot;Times New Roman&quot;&gt;&lt;br&gt;&lt;/font&gt;&lt;/b&gt;&lt;/div&gt;&lt;div style=&quot;text-align: left;&quot;&gt;&lt;b style=&quot;background-color: transparent; color: light-dark(rgb(51, 51, 51), rgb(193, 193, 193));&quot;&gt;&lt;font style=&quot;font-size: 14px;&quot; face=&quot;Times New Roman&quot;&gt;输出 :&lt;/font&gt;&lt;/b&gt;&lt;/div&gt;&lt;div style=&quot;text-align: left;&quot;&gt;&lt;font face=&quot;Times New Roman&quot; style=&quot;font-size: 14px;&quot;&gt;[&lt;font style=&quot;&quot;&gt;Task]&lt;/font&gt;relax&amp;nbsp;on the bed&lt;span style=&quot;background-color: transparent; color: light-dark(rgb(51, 51, 51), rgb(193, 193, 193)); text-align: center;&quot;&gt;.&lt;/span&gt;&lt;/font&gt;&lt;/div&gt;&lt;/div&gt;" style="rounded=1;arcSize=6;whiteSpace=wrap;html=1;fillColor=#f5f5f5;fontColor=#333333;strokeColor=#666666;" vertex="1" parent="1">
          <mxGeometry x="530" y="200" width="380" height="220" as="geometry" />
        </mxCell>
        <mxCell id="_9PVzrd9Amoy8zWmT1fk-4" value="" style="endArrow=none;html=1;rounded=0;exitX=0.001;exitY=0.727;exitDx=0;exitDy=0;exitPerimeter=0;entryX=1;entryY=0.729;entryDx=0;entryDy=0;entryPerimeter=0;fillColor=#f5f5f5;strokeColor=#666666;" edge="1" parent="1" source="_9PVzrd9Amoy8zWmT1fk-3" target="_9PVzrd9Amoy8zWmT1fk-3">
          <mxGeometry width="50" height="50" relative="1" as="geometry">
            <mxPoint x="529" y="360" as="sourcePoint" />
            <mxPoint x="840" y="400" as="targetPoint" />
          </mxGeometry>
        </mxCell>
      </root>
    </mxGraphModel>
  </diagram>
</mxfile>
